<?xml version="1.0" encoding="UTF-8"?>
<svg version="1.1" xmlns="http://www.w3.org/2000/svg" width="928" height="928">
<path d="M0 0 C1.3746452 0.20088404 2.74932105 0.40155844 4.12402344 0.60205078 C80.0905279 11.84011779 153.46012276 40.72839668 215 87 C215.61343262 87.46035645 216.22686523 87.92071289 216.85888672 88.39501953 C227.05661434 96.07792932 236.99211926 104.04708626 246.41796875 112.6640625 C247.79992852 113.9143075 249.18748103 115.15916107 250.6081543 116.36523438 C256.92578339 121.75299237 262.77778687 127.59168099 268.64477539 133.45947266 C270.42510252 135.23761772 272.21328377 137.00759561 274.00195312 138.77734375 C280.01460832 144.76066892 285.69221703 150.81709407 290.9699707 157.47363281 C292.94117473 159.92679208 294.99538664 162.26327343 297.109375 164.59375 C301.09756779 169.03559479 304.69968077 173.70431316 308.25 178.5 C308.89839844 179.37309814 309.54679688 180.24619629 310.21484375 181.14575195 C312.14935287 183.75938209 314.07524794 186.37918019 316 189 C316.53173828 189.71720215 317.06347656 190.4344043 317.61132812 191.17333984 C343.70143457 226.45621196 363.57061669 266.66053371 378 308 C378.3722168 309.06202637 378.74443359 310.12405273 379.12792969 311.21826172 C389.11867478 340.07899466 395.77012031 369.77193538 400 400 C400.16371094 401.10456543 400.32742188 402.20913086 400.49609375 403.34716797 C405.96976442 441.62328031 405.77897076 483.79544759 400 522 C399.79911596 523.3746452 399.59844156 524.74932105 399.39794922 526.12402344 C388.15988221 602.0905279 359.27160332 675.46012276 313 737 C312.30946533 737.92014893 312.30946533 737.92014893 311.60498047 738.85888672 C303.92207068 749.05661434 295.95291374 758.99211926 287.3359375 768.41796875 C286.0856925 769.79992852 284.84083893 771.18748103 283.63476562 772.6081543 C278.24700763 778.92578339 272.40831901 784.77778687 266.54052734 790.64477539 C264.76238228 792.42510252 262.99240439 794.21328377 261.22265625 796.00195312 C255.23933108 802.01460832 249.18290593 807.69221703 242.52636719 812.9699707 C240.07320792 814.94117473 237.73672657 816.99538664 235.40625 819.109375 C230.96440521 823.09756779 226.29568684 826.69968077 221.5 830.25 C220.62690186 830.89839844 219.75380371 831.54679688 218.85424805 832.21484375 C216.24061791 834.14935287 213.62081981 836.07524794 211 838 C210.28279785 838.53173828 209.5655957 839.06347656 208.82666016 839.61132812 C173.54378804 865.70143457 133.33946629 885.57061669 92 900 C90.93797363 900.3722168 89.87594727 900.74443359 88.78173828 901.12792969 C59.92100534 911.11867478 30.22806462 917.77012031 0 922 C-1.10456543 922.16371094 -2.20913086 922.32742188 -3.34716797 922.49609375 C-41.62328031 927.96976442 -83.79544759 927.77897076 -122 922 C-123.3746452 921.79911596 -124.74932105 921.59844156 -126.12402344 921.39794922 C-202.0905279 910.15988221 -275.46012276 881.27160332 -337 835 C-337.92014893 834.30946533 -337.92014893 834.30946533 -338.85888672 833.60498047 C-349.05661434 825.92207068 -358.99211926 817.95291374 -368.41796875 809.3359375 C-369.79992852 808.0856925 -371.18748103 806.84083893 -372.6081543 805.63476562 C-378.92578339 800.24700763 -384.77778687 794.40831901 -390.64477539 788.54052734 C-392.42510252 786.76238228 -394.21328377 784.99240439 -396.00195312 783.22265625 C-402.01460832 777.23933108 -407.69221703 771.18290593 -412.9699707 764.52636719 C-414.94117473 762.07320792 -416.99538664 759.73672657 -419.109375 757.40625 C-423.09756779 752.96440521 -426.69968077 748.29568684 -430.25 743.5 C-430.89839844 742.62690186 -431.54679687 741.75380371 -432.21484375 740.85424805 C-434.14935287 738.24061791 -436.07524794 735.62081981 -438 733 C-438.53173828 732.28279785 -439.06347656 731.5655957 -439.61132812 730.82666016 C-465.70143457 695.54378804 -485.57061669 655.33946629 -500 614 C-500.5583252 612.40696045 -500.5583252 612.40696045 -501.12792969 610.78173828 C-511.11867478 581.92100534 -517.77012031 552.22806462 -522 522 C-522.16371094 520.89543457 -522.32742188 519.79086914 -522.49609375 518.65283203 C-527.96976442 480.37671969 -527.77897076 438.20455241 -522 400 C-521.79911596 398.6253548 -521.59844156 397.25067895 -521.39794922 395.87597656 C-510.15988221 319.9094721 -481.27160332 246.53987724 -435 185 C-434.53964355 184.38656738 -434.07928711 183.77313477 -433.60498047 183.14111328 C-425.92207068 172.94338566 -417.95291374 163.00788074 -409.3359375 153.58203125 C-408.0856925 152.20007148 -406.84083893 150.81251897 -405.63476562 149.3918457 C-400.24700763 143.07421661 -394.40831901 137.22221313 -388.54052734 131.35522461 C-386.76238228 129.57489748 -384.99240439 127.78671623 -383.22265625 125.99804688 C-377.23933108 119.98539168 -371.18290593 114.30778297 -364.52636719 109.0300293 C-362.07320792 107.05882527 -359.73672657 105.00461336 -357.40625 102.890625 C-352.96440521 98.90243221 -348.29568684 95.30031923 -343.5 91.75 C-342.62690186 91.10160156 -341.75380371 90.45320313 -340.85424805 89.78515625 C-338.24061791 87.85064713 -335.62081981 85.92475206 -333 84 C-332.28279785 83.46826172 -331.5655957 82.93652344 -330.82666016 82.38867188 C-295.54378804 56.29856543 -255.33946629 36.42938331 -214 22 C-212.40696045 21.4416748 -212.40696045 21.4416748 -210.78173828 20.87207031 C-181.92100534 10.88132522 -152.22806462 4.22987969 -122 0 C-120.89543457 -0.16371094 -119.79086914 -0.32742188 -118.65283203 -0.49609375 C-80.37671969 -5.96976442 -38.20455241 -5.77897076 0 0 Z " fill="#E6E6E1" transform="translate(525,3)"/>
<path d="M0 0 C1.18609863 0.2254248 2.37219727 0.45084961 3.59423828 0.68310547 C32.19740962 6.16410864 60.9524922 14.84823484 87 28 C87.82886719 28.41040527 88.65773438 28.82081055 89.51171875 29.24365234 C113.63189394 41.23613855 136.7716408 55.58643211 156.87109375 73.62109375 C158.8524387 75.22666014 158.8524387 75.22666014 160.93177795 74.76815796 C163.30538497 73.88657703 164.4571133 72.89421992 166.22045898 71.08837891 C167.12676308 70.17205185 167.12676308 70.17205185 168.05137634 69.23721313 C168.69313309 68.57369843 169.33488983 67.91018372 169.99609375 67.2265625 C170.66665298 66.54701508 171.33721222 65.86746765 172.02809143 65.16732788 C174.17182836 62.99355859 176.3054181 60.81019768 178.4375 58.625 C180.56682282 56.44779208 182.69833385 54.27291952 184.8361969 52.10409546 C186.16588112 50.75471908 187.49060967 49.40043646 188.80967712 48.04067993 C196.18758912 40.54330665 196.18758912 40.54330665 201.0625 39.6015625 C205.50717999 39.65532879 208.44743628 40.0564472 212 43 C215.17799798 47.29087637 215.82315976 51.37496106 216.53515625 56.52734375 C216.71958031 57.77704201 216.71958031 57.77704201 216.9077301 59.05198669 C218.27746435 68.53172899 219.36786528 78.04516484 220.4375 87.5625 C220.65238644 89.44658408 220.86772619 91.3306165 221.08349609 93.21459961 C221.51755496 97.00618506 221.94999101 100.79795 222.38134766 104.58984375 C223.19387753 111.71547018 224.03373 118.83781203 224.87661743 125.9598999 C225.12292205 128.04490981 225.36776559 130.13008577 225.61206055 132.21533203 C226.36535336 138.64271783 227.12830682 145.06867726 227.9140625 151.4921875 C228.05569824 152.669021 228.19733398 153.84585449 228.34326172 155.05834961 C228.6026644 157.21344714 228.86681662 159.36798198 229.13720703 161.52172852 C231.44980464 180.91860032 231.44980464 180.91860032 227 187 C218.89330375 193.32687696 209.79247884 191.48055223 200.13769531 190.34716797 C193.1212208 189.46271851 186.12380357 188.45079882 179.125 187.4375 C176.56270312 187.07384822 174.00028259 186.71106669 171.43774414 186.34912109 C166.20163572 185.60779692 160.96645394 184.86036395 155.73193359 184.10791016 C148.36128244 183.04928984 140.98764863 182.0128272 133.61328125 180.98046875 C130.28104949 180.51201995 126.94892619 180.04281191 123.61688232 179.57302856 C121.5146492 179.27678848 119.41231504 178.98126444 117.30987549 178.68649292 C114.39224869 178.27642605 111.47534288 177.86157033 108.55859375 177.4453125 C107.71734451 177.32790207 106.87609528 177.21049164 106.00935364 177.08952332 C87.93306466 174.48796878 87.93306466 174.48796878 82.6875 168.25 C80.68013673 164.38396703 80.38545734 162.30179863 81 158 C83.77067025 153.27000587 87.15034411 149.55520689 91.0078125 145.7265625 C91.57450653 145.15795502 92.14120056 144.58934753 92.72506714 144.00350952 C93.91435375 142.81287035 95.10613594 141.62471915 96.30029297 140.43896484 C98.13357158 138.61647888 99.9558324 136.78345767 101.77734375 134.94921875 C102.93685856 133.79102414 104.09699287 132.63344933 105.2578125 131.4765625 C105.80365997 130.92666656 106.34950745 130.37677063 106.91189575 129.81021118 C110.77003604 126 110.77003604 126 113 126 C113.2475 125.401875 113.495 124.80375 113.75 124.1875 C115.16370012 121.71352479 116.65055383 120.56629745 119 119 C118.4500418 115.31912627 117.23157901 114.00549891 114.30078125 111.78515625 C113.51501709 111.18791748 112.72925293 110.59067871 111.91967773 109.9753418 C111.05930908 109.344104 110.19894043 108.71286621 109.3125 108.0625 C108.42054932 107.4022583 107.52859863 106.7420166 106.60961914 106.06176758 C96.8341931 98.95801338 86.54558407 92.87651692 76 87 C75.20271484 86.54786133 74.40542969 86.09572266 73.58398438 85.62988281 C10.05711341 49.74549614 -64.76515809 42.24724392 -134.6875 61.25 C-151.58475886 66.02428013 -167.63064307 72.86475902 -183.15283203 81.03369141 C-184.98731943 81.99336642 -186.83351975 82.92625939 -188.68359375 83.85546875 C-204.28423219 91.79415741 -218.51446887 101.88599297 -232 113 C-232.80896729 113.66249756 -232.80896729 113.66249756 -233.63427734 114.33837891 C-245.0624469 123.72984498 -256.69098469 133.45362479 -266 145 C-266.89827236 146.08607411 -267.79672771 147.17199688 -268.6953125 148.2578125 C-306.83613061 194.73844153 -332.90494571 254.59536521 -333.203125 315.37890625 C-333.21018463 316.34056702 -333.21724426 317.30222778 -333.22451782 318.29302979 C-333.51174827 368.92211477 -324.90159774 415.89391589 -301 461 C-300.48034668 461.98347412 -300.48034668 461.98347412 -299.95019531 462.98681641 C-291.53293963 478.77013345 -281.32486717 493.1795554 -270 507 C-269.54044922 507.56396484 -269.08089844 508.12792969 -268.60742188 508.70898438 C-257.40519698 522.3728943 -245.0836865 535.28497906 -231 546 C-230.41283203 546.45294434 -229.82566406 546.90588867 -229.22070312 547.37255859 C-205.05723697 565.99805269 -179.74017454 580.48238277 -151 591 C-150.18869629 591.29986816 -149.37739258 591.59973633 -148.54150391 591.90869141 C-105.35962131 607.67615724 -56.3430853 612.56582075 -11 604 C-10.18789063 603.85546387 -9.37578125 603.71092773 -8.5390625 603.56201172 C43.08340734 594.25388667 90.95877273 570.40875289 129.66796875 535.11328125 C131.75034736 533.22623463 133.86503064 531.38941767 136 529.5625 C144.53864652 522.08903675 151.99852512 513.91424895 159 505 C159.79148437 504.01386719 160.58296875 503.02773438 161.3984375 502.01171875 C197.53235941 456.2458839 219.17699709 397.50530844 220.2265625 339.15234375 C220.24146729 338.39377579 220.25637207 337.63520782 220.27172852 336.85365295 C220.3395786 333.11691394 220.37515272 329.38404759 220.35839844 325.64672852 C220.39829446 316.672471 221.44128988 309.46229078 227.33642578 302.39868164 C233.86407365 296.22841968 242.2843012 295.49110808 250.84765625 295.7109375 C257.69814545 296.33911123 263.6990045 298.54234469 269 303 C274.16449462 309.69949719 276.31019561 316.26634058 276.30078125 324.73046875 C276.3063353 325.47013382 276.31188934 326.20979889 276.31761169 326.97187805 C276.32941959 329.37728529 276.32310228 331.78209252 276.3125 334.1875 C276.31100952 335.0120166 276.30951904 335.8365332 276.3079834 336.68603516 C276.2595273 351.62208521 275.27404175 366.21996583 273 381 C272.86609863 381.88896973 272.73219727 382.77793945 272.59423828 383.69384766 C265.81187287 427.05988106 249.71439454 470.02235254 226 507 C225.32839844 508.051875 224.65679688 509.10375 223.96484375 510.1875 C216.54185774 521.52120429 208.64929991 532.56948991 200 543 C199.19175781 543.98226562 198.38351562 544.96453125 197.55078125 545.9765625 C182.87459578 563.66597446 166.98511584 579.78710634 148.67626953 593.71337891 C147.07986043 594.93870311 145.5060272 596.19327509 143.93359375 597.44921875 C115.77913185 619.77861957 82.92771734 636.41740388 49 648 C48.27377441 648.25201172 47.54754883 648.50402344 46.79931641 648.76367188 C24.83393089 656.31933274 2.09969739 661.59440134 -21 664 C-21.89251465 664.10151367 -22.7850293 664.20302734 -23.70458984 664.30761719 C-104.30764816 673.39894239 -192.53748565 648.98501757 -256.36328125 598.6015625 C-259.69934914 595.9203495 -262.99268652 593.19017054 -266.27197266 590.43994141 C-268.71549886 588.40378464 -271.20491202 586.42571981 -273.6875 584.4375 C-286.62031575 573.83142771 -299.19460583 562.1281646 -309.58984375 549.01953125 C-311.30172296 546.87482683 -313.03091916 544.7799864 -314.81640625 542.69921875 C-332.2922918 522.13655993 -345.95626247 499.05089019 -358 475 C-358.47373047 474.06446289 -358.94746094 473.12892578 -359.43554688 472.16503906 C-367.79650921 455.46153061 -373.50901035 437.80785354 -379 420 C-379.32516602 418.95199219 -379.65033203 417.90398437 -379.98535156 416.82421875 C-387.58544408 391.77047521 -390.76523779 365.11946944 -391 339 C-391.03903024 336.86458274 -391.07809375 334.72916609 -391.1171875 332.59375 C-392.21658612 251.70684862 -363.50888006 169.97965088 -310 109 C-309.36304199 108.27401611 -308.72608398 107.54803223 -308.06982422 106.80004883 C-302.46703785 100.49234702 -296.6354361 94.44918999 -290.67138672 88.48608398 C-289.1282647 86.94076934 -287.59335694 85.38759554 -286.05859375 83.83398438 C-279.70111512 77.44012832 -273.11140295 71.56280597 -266 66 C-264.98317139 65.19429565 -264.98317139 65.19429565 -263.94580078 64.37231445 C-253.45128156 56.13136389 -242.41560457 48.89231387 -231 42 C-230.17902832 41.49968262 -229.35805664 40.99936523 -228.51220703 40.48388672 C-198.87213754 22.53367138 -166.59672419 11.00336539 -133 3 C-132.15840332 2.79004395 -131.31680664 2.58008789 -130.44970703 2.36376953 C-89.61626029 -7.81667112 -41.11453492 -8.44146416 0 0 Z " fill="#1E2321" transform="translate(521,135)"/>
<path d="M0 0 C1.54504134 -0.00269804 3.09008102 -0.00658305 4.63511658 -0.01159668 C7.86376202 -0.01747539 11.09196308 -0.00898078 14.32055664 0.00976562 C18.44877705 0.03257404 22.57595818 0.01941077 26.70414066 -0.00452423 C29.89130928 -0.01901033 33.07823331 -0.01436382 36.26540947 -0.00401306 C37.78717613 -0.00135451 39.30896536 -0.00458478 40.83070564 -0.01393127 C42.96072976 -0.02414635 45.08909305 -0.00853138 47.21899414 0.01367188 C48.42809952 0.01685425 49.6372049 0.02003662 50.88294983 0.02331543 C56.05196641 0.81131237 59.12835627 3.29793989 62.52734375 7.15625 C65.32232658 11.08992954 65.36641969 13.40669558 65.43945312 18.24072266 C65.4508432 18.93042145 65.46223328 19.62012024 65.47396851 20.33071899 C65.58472599 27.55471329 65.63207325 34.77972996 65.67480469 42.00439453 C65.69705015 45.42873467 65.73877085 48.85197979 65.79785156 52.27587891 C65.8691313 56.41506926 65.90566467 60.55323204 65.91792297 64.69300461 C65.92829368 66.26627479 65.95064726 67.83951578 65.98551941 69.41243362 C66.27635541 83.25034863 66.27635541 83.25034863 61.81835938 88.46630859 C57.07393841 92.90952728 52.91302282 94.02146472 46.4921875 93.83984375 C42.75732513 93.33374748 40.02290619 92.04027202 37.21484375 89.53125 C34.03565264 85.27944426 32.17728123 80.8175621 31.8984375 75.51953125 C31.85654297 74.76220703 31.81464844 74.00488281 31.77148438 73.22460938 C31.73216797 72.43892578 31.69285156 71.65324219 31.65234375 70.84375 C31.60916016 70.04646484 31.56597656 69.24917969 31.52148438 68.42773438 C31.41557007 66.46243553 31.31471824 64.49686504 31.21484375 62.53125 C27.49449026 66.22666557 23.77760149 69.92552082 20.0637207 73.62744141 C18.8029216 74.8832482 17.54122199 76.13815164 16.27856445 77.39208984 C14.45149233 79.20687062 12.62781091 81.02500337 10.8046875 82.84375 C10.25022446 83.39305176 9.69576141 83.94235352 9.12449646 84.50830078 C6.31771722 87.31468746 3.6316617 90.1753825 1.05015564 93.190979 C-2.93283523 97.76022387 -7.15015332 102.06560568 -11.42333984 106.36230469 C-12.25846603 107.20560837 -13.09359222 108.04891205 -13.95402527 108.91777039 C-16.69419025 111.68257038 -19.43824791 114.44347214 -22.18359375 117.203125 C-23.13529451 118.16019578 -24.08699151 119.11727029 -25.03868484 120.07434845 C-28.99825357 124.05548442 -32.9592368 128.03520409 -36.92394066 132.01122665 C-42.57634714 137.67988854 -48.22006667 143.35689542 -53.85210741 149.04579425 C-57.83166091 153.06413231 -61.82083287 157.07276068 -65.81718504 161.0743916 C-68.19623273 163.45707645 -70.57099044 165.84368377 -72.93549728 168.24080658 C-75.57474766 170.91170571 -78.22937025 173.56636755 -80.88818359 176.21777344 C-81.65834305 177.00433823 -82.4285025 177.79090302 -83.22200012 178.6013031 C-89.07896784 184.3919193 -94.94412258 188.45735334 -103.34765625 189.03125 C-113.18970139 188.47278694 -119.21848554 181.62948505 -125.69140625 174.98046875 C-127.10379993 173.55580028 -128.51619583 172.13113402 -129.92871857 170.70659351 C-131.8924958 168.72097647 -133.84681248 166.72617053 -135.80133057 164.73144531 C-139.21714413 161.24917295 -142.64781013 157.78153465 -146.07849121 154.31391907 C-147.89871824 152.47221961 -149.71541093 150.62701792 -151.5279541 148.77775574 C-155.88390395 144.35401688 -160.28249458 140.09324798 -165.04162598 136.10334778 C-166.96739886 134.36692638 -168.60768647 132.50762 -170.28515625 130.53125 C-172.49734742 127.92620859 -174.72224594 125.63467043 -177.33984375 123.43920898 C-182.61626172 118.88244689 -187.49685045 113.94465818 -192.41015625 109.00390625 C-193.40741302 108.00477972 -194.40489427 107.0058772 -195.40258789 106.00718689 C-198.00221304 103.4037805 -200.59881856 100.7973833 -203.19476318 98.19030762 C-205.85455388 95.52020726 -208.51724965 92.85300723 -211.1796875 90.18554688 C-216.38432513 84.97024962 -221.58576965 79.75178284 -226.78515625 74.53125 C-229.82095432 75.88828403 -231.90226667 77.4067332 -234.23339844 79.76831055 C-234.88798035 80.42627121 -235.54256226 81.08423187 -236.21697998 81.76213074 C-236.9149469 82.47355728 -237.61291382 83.18498383 -238.33203125 83.91796875 C-239.42707977 85.02081963 -239.42707977 85.02081963 -240.54425049 86.14595032 C-242.87935113 88.4988525 -245.20768072 90.85830672 -247.53515625 93.21875 C-249.84915492 95.56051472 -252.16464245 97.90075514 -254.48321533 100.23799133 C-255.92418 101.69104808 -257.36246599 103.14676808 -258.79754639 104.6056366 C-259.79833221 105.6162188 -259.79833221 105.6162188 -260.81933594 106.6472168 C-261.39351257 107.22964645 -261.96768921 107.81207611 -262.55926514 108.41215515 C-264.51185013 110.27105686 -266.50783846 112.03248788 -268.54815674 113.79325867 C-272.72953475 117.43223421 -276.64899464 121.2808341 -280.54296875 125.22314453 C-281.27255798 125.95740662 -282.00214722 126.6916687 -282.75384521 127.44818115 C-284.32409385 129.02886121 -285.8932358 130.61064129 -287.46136475 132.19342422 C-289.94782677 134.7020691 -292.43837363 137.20659034 -294.93017578 139.70993042 C-302.0098376 146.82304063 -309.08527991 153.94030565 -316.15039062 161.06787109 C-320.48438574 165.43959205 -324.82572842 169.80390079 -329.17181396 174.16360092 C-330.82034186 175.82015786 -332.46609361 177.47948249 -334.10894775 179.14166641 C-336.4081711 181.46748182 -338.71664072 183.78374162 -341.02734375 186.09814453 C-341.69666931 186.77982697 -342.36599487 187.4615094 -343.05560303 188.16384888 C-349.42533336 194.50687216 -355.50727485 199.53125 -364.78515625 199.53125 C-371.58995088 198.06757719 -376.55578143 194.57806226 -380.66015625 188.96875 C-382.3227077 183.88873168 -382.65854163 178.81282458 -381.78515625 173.53125 C-379.17514115 169.17563151 -376.1778075 165.67535823 -372.59277344 162.09594727 C-372.08810043 161.58937592 -371.58342743 161.08280457 -371.0634613 160.56088257 C-369.40781738 158.90155996 -367.74512662 157.24950767 -366.08203125 155.59765625 C-364.91827461 154.43509378 -363.75488966 153.27215912 -362.59185791 152.10887146 C-360.15725755 149.67583127 -357.71934892 147.24617338 -355.27880859 144.8190918 C-352.16939541 141.72662005 -349.0665568 138.62765527 -345.96598434 135.52632236 C-343.56403793 133.1246496 -341.15948046 130.72560529 -338.75406647 128.32740593 C-337.61015578 127.18665126 -336.46682673 126.04531299 -335.32411957 124.90335274 C-333.71693538 123.29836782 -332.10648116 121.69673447 -330.49511719 120.09594727 C-329.58340759 119.18804947 -328.671698 118.28015167 -327.73236084 117.34474182 C-325.52293649 115.19203318 -323.22937872 113.16220082 -320.89494324 111.14599609 C-316.85703745 107.64067787 -313.07383985 103.93462433 -309.31860352 100.13061523 C-308.61988129 99.42722015 -307.92115906 98.72382507 -307.20126343 97.99911499 C-305.69813144 96.48555585 -304.19610765 94.97089547 -302.69510078 93.45522881 C-300.3133894 91.05131479 -297.92757793 88.65154149 -295.54051208 86.25294495 C-288.75861349 79.43761958 -281.98092336 72.61815331 -275.21362305 65.78833008 C-271.06119604 61.5981278 -266.90138126 57.41538096 -262.73682976 53.2372303 C-261.15889925 51.6512825 -259.58374242 50.06256973 -258.01150703 48.47097588 C-255.80831472 46.24112119 -253.59581553 44.02089583 -251.38110352 41.80249023 C-250.74342545 41.15245529 -250.10574738 40.50242035 -249.44874573 39.83268738 C-243.1016068 33.51319351 -236.72216975 28.11331015 -227.59765625 27.21875 C-215.71897005 28.1924128 -208.82413972 36.83837027 -200.95703125 44.87109375 C-199.63775963 46.19970856 -198.31736654 47.52721063 -196.99591064 48.85365295 C-193.53436312 52.33420083 -190.08808608 55.82948793 -186.64489746 59.32818604 C-183.14344216 62.88079666 -179.62780724 66.41931219 -176.11328125 69.95898438 C-170.43757426 75.67851522 -164.77047162 81.40640149 -159.11495972 87.14590454 C-152.9597703 93.43320558 -152.9597703 93.43320558 -146.59375 99.50390625 C-145.76520508 100.26477539 -145.76520508 100.26477539 -144.91992188 101.04101562 C-144.35982422 101.55341797 -143.79972656 102.06582031 -143.22265625 102.59375 C-134.88370488 110.22746434 -134.88370488 110.22746434 -132.78515625 112.53125 C-132.78515625 113.19125 -132.78515625 113.85125 -132.78515625 114.53125 C-132.24600586 114.74442871 -131.70685547 114.95760742 -131.15136719 115.17724609 C-127.92013167 117.02623827 -125.51116932 119.55920629 -122.92578125 122.1953125 C-122.37653992 122.74738373 -121.82729858 123.29945496 -121.26141357 123.86825562 C-119.51456332 125.62626815 -117.77481024 127.3911189 -116.03515625 129.15625 C-114.84942034 130.3520208 -113.66322745 131.54733865 -112.4765625 132.7421875 C-109.5741054 135.66665253 -106.67799215 138.59726874 -103.78515625 141.53125 C-100.2694668 140.02790672 -98.00813868 138.00117736 -95.31793213 135.30453491 C-94.4289473 134.41829941 -93.53996246 133.5320639 -92.6240387 132.61897278 C-91.64672699 131.63458337 -90.66951158 130.65009835 -89.69238281 129.66552734 C-88.65775286 128.63033313 -87.62268208 127.59557935 -86.58720398 126.56123352 C-83.77931543 123.75391888 -80.97763682 120.94047972 -78.17702579 118.12590742 C-75.24844614 115.18482681 -72.31420323 112.2494075 -69.3805542 109.31338501 C-63.82698771 103.75360189 -58.27853923 98.1887401 -52.73190761 92.62203944 C-46.41665654 86.28443508 -40.09572674 79.95250757 -33.77431154 73.6210525 C-20.77159383 60.59742865 -7.77603113 47.56668639 5.21484375 34.53125 C4.64564209 34.5219043 4.07644043 34.51255859 3.48999023 34.50292969 C0.87660722 34.44878831 -1.73506867 34.36523255 -4.34765625 34.28125 C-5.24291016 34.26707031 -6.13816406 34.25289063 -7.06054688 34.23828125 C-13.88486835 33.9883061 -18.37939842 32.65446738 -23.52734375 27.93359375 C-26.91021059 23.55919698 -28.21788968 20.32700018 -28.125 14.72265625 C-27.2932973 9.35960779 -24.30939702 5.74100091 -20.16064453 2.44824219 C-14.09217872 -0.9142069 -6.7422878 -0.04147468 0 0 Z " fill="#1E2220" transform="translate(627.78515625,361.46875)"/>
<path d="M0 0 C0.66 0.33 1.32 0.66 2 1 C0.7934375 2.11375 0.7934375 2.11375 -0.4375 3.25 C-3.32620749 6.20972187 -3.32620749 6.20972187 -4 10 C-3.649375 10.639375 -3.29875 11.27875 -2.9375 11.9375 C-2 14 -2 14 -2.5625 16.6875 C-4 19 -4 19 -6.5 19.6875 C-7.325 19.790625 -8.15 19.89375 -9 20 C-9.66 20.66 -10.32 21.32 -11 22 C-12.8253125 21.86078125 -12.8253125 21.86078125 -14.6875 21.71875 C-18.35701214 21.62585096 -19.94353666 22.3474211 -22.625 24.84375 C-23.77116743 26.04261479 -24.89600668 27.26218931 -26 28.5 C-26.58394531 29.12003906 -27.16789062 29.74007812 -27.76953125 30.37890625 C-29.19862832 31.9017146 -30.60201656 33.44857936 -32 35 C-32.66 34.67 -33.32 34.34 -34 34 C-22.78 22.78 -11.56 11.56 0 0 Z " fill="#141716" transform="translate(288,491)"/>
<path d="M0 0 C3.01387326 1.35055836 5.0984396 2.85315014 7.41992188 5.19287109 C8.39112976 6.16430557 8.39112976 6.16430557 9.38195801 7.15536499 C10.07059937 7.85432892 10.75924072 8.55329285 11.46875 9.2734375 C12.186073 9.99359039 12.903396 10.71374329 13.64245605 11.45571899 C15.93304509 13.75748999 18.21659131 16.06610791 20.5 18.375 C22.03729877 19.92233378 23.57505414 21.46921409 25.11328125 23.015625 C27.93838999 25.85706052 30.76088305 28.70103701 33.58007812 31.54833984 C36.04643274 34.03924483 38.51777424 36.5248889 41 39 C40.505 39.99 40.505 39.99 40 41 C34.78172368 35.80484727 29.56611611 30.60703128 24.35394287 25.40575504 C21.93389538 22.99093635 19.51292226 20.5770608 17.08984375 18.1652832 C14.30715081 15.39548801 11.52846483 12.62169306 8.75 9.84765625 C7.87504883 8.97786636 7.00009766 8.10807648 6.09863281 7.21192932 C5.29780273 6.41117477 4.49697266 5.61042023 3.671875 4.78540039 C2.9612793 4.0770253 2.25068359 3.36865021 1.51855469 2.6388092 C0 1 0 1 0 0 Z " fill="#EBECE9" transform="translate(412,392)"/>
<path d="M0 0 C0 0.33 0 0.66 0 1 C-3.3 1.66 -6.6 2.32 -10 3 C-10.2475 3.969375 -10.495 4.93875 -10.75 5.9375 C-12 9 -12 9 -14 10 C-14.66 10 -15.32 10 -16 10 C-16.66 9.34 -17.32 8.68 -18 8 C-17.34 6.68 -16.68 5.36 -16 4 C-17.65 4.33 -19.3 4.66 -21 5 C-16.08584183 -1.35949881 -7.16910193 -0.23335232 0 0 Z " fill="#151917" transform="translate(773,431)"/>
<path d="M0 0 C0.33 0.66 0.66 1.32 1 2 C1.66 2.33 2.32 2.66 3 3 C2.938125 4.093125 2.87625 5.18625 2.8125 6.3125 C2.64402086 9.92126083 2.64402086 9.92126083 4.5 11.9375 C4.995 12.288125 5.49 12.63875 6 13 C1.81761166 12.45230629 -0.59868545 10.10111111 -3.75 7.4375 C-4.73484375 6.61121094 -5.7196875 5.78492188 -6.734375 4.93359375 C-7.48203125 4.29550781 -8.2296875 3.65742187 -9 3 C-6 3 -6 3 -4 4 C-0.95865509 2.33075929 -0.95865509 2.33075929 0 0 Z " fill="#181C1A" transform="translate(267,725)"/>
<path d="M0 0 C3.7952131 1.49097658 5.61042731 3.75700849 8 7 C7.01 7.33 6.02 7.66 5 8 C4.67 8.66 4.34 9.32 4 10 C2.68 9.67 1.36 9.34 0 9 C-0.66 6.69 -1.32 4.38 -2 2 C-1.34 2 -0.68 2 0 2 C0 1.34 0 0.68 0 0 Z " fill="#232725" transform="translate(481,462)"/>
<path d="M0 0 C4.98012761 1.50912958 8.24259942 4.55661849 12 8 C11.01 8 10.02 8 9 8 C7.29467677 9.94009522 7.29467677 9.94009522 6 12 C4 11 4 11 3 8 C2.34 7.34 1.68 6.68 1 6 C1.33 5.34 1.66 4.68 2 4 C1.10836423 1.88316159 1.10836423 1.88316159 0 0 Z " fill="#171A19" transform="translate(659,195)"/>
<path d="M0 0 C2.9719385 1.12451727 5.33440687 2.22293791 8 4 C8.4375 6.4375 8.4375 6.4375 8 9 C5.95575462 10.97610386 4.8823175 12 2 12 C1.67 12.99 1.34 13.98 1 15 C-0.04449911 11.86650268 0.06576355 11.01031744 1 8 C1.99 8 2.98 8 4 8 C3.50168276 4.31245243 2.89932357 2.39509338 0 0 Z " fill="#1D2120" transform="translate(630,176)"/>
<path d="M0 0 C0.33 0 0.66 0 1 0 C2.18225237 6.83079148 1.74464946 13.12631267 1 20 C0.67 20 0.34 20 0 20 C0 13.4 0 6.8 0 0 Z M2 0 C3.9375 0.3125 3.9375 0.3125 6 1 C6.33 1.99 6.66 2.98 7 4 C6.67 4.66 6.34 5.32 6 6 C3.9375 6.625 3.9375 6.625 2 7 C2 4.69 2 2.38 2 0 Z " fill="#121614" transform="translate(661,423)"/>
<path d="M0 0 C3.5625 0.1875 3.5625 0.1875 6.5625 1.1875 C6.5625 1.8475 6.5625 2.5075 6.5625 3.1875 C5.5725 3.6825 5.5725 3.6825 4.5625 4.1875 C4.8925 4.8475 5.2225 5.5075 5.5625 6.1875 C5.2325 7.1775 4.9025 8.1675 4.5625 9.1875 C3.9025 9.1875 3.2425 9.1875 2.5625 9.1875 C0.9375 7.1875 0.9375 7.1875 -0.4375 5.1875 C0.5525 4.5275 1.5425 3.8675 2.5625 3.1875 C-0.0775 2.8575 -2.7175 2.5275 -5.4375 2.1875 C-3.4375 0.1875 -3.4375 0.1875 0 0 Z " fill="#181B19" transform="translate(400.4375,388.8125)"/>
<path d="M0 0 C0.66 0.33 1.32 0.66 2 1 C0.625 2.5 0.625 2.5 -1 4 C-1.66 4 -2.32 4 -3 4 C-3.3403125 4.86625 -3.3403125 4.86625 -3.6875 5.75 C-5.73758279 9.26442764 -8.43333277 11.49189171 -12.3125 12.75 C-13.1478125 12.87375 -13.1478125 12.87375 -14 13 C-12.6351424 8.90542721 -9.78245715 7.28332715 -6.4375 4.8125 C-5.82197266 4.34908203 -5.20644531 3.88566406 -4.57226562 3.40820312 C-3.05294435 2.26576775 -1.52708373 1.13203843 0 0 Z " fill="#131615" transform="translate(642,678)"/>
<path d="M0 0 C3.99500618 1.3697164 6.80009492 3.25722422 10 6 C8.68 6 7.36 6 6 6 C6 5.34 6 4.68 6 4 C2.27385847 5.11854586 2.27385847 5.11854586 0 8 C-0.99 7.34 -1.98 6.68 -3 6 C-2.01 4.02 -1.02 2.04 0 0 Z " fill="#151917" transform="translate(313,699)"/>
<path d="M0 0 C0 4.07587476 -1.25991672 4.98590839 -4 8 C-11.23284823 15 -11.23284823 15 -15 15 C-10.05 10.05 -5.1 5.1 0 0 Z " fill="#090C0A" transform="translate(231,223)"/>
<path d="M0 0 C0.556875 0.268125 1.11375 0.53625 1.6875 0.8125 C0.6975 1.1425 -0.2925 1.4725 -1.3125 1.8125 C-0.9825 2.8025 -0.6525 3.7925 -0.3125 4.8125 C-7.0625 8.6875 -7.0625 8.6875 -9.3125 9.8125 C-7.92024522 5.38259844 -5.31574828 -0.43100662 0 0 Z " fill="#151816" transform="translate(205.3125,254.1875)"/>
<path d="M0 0 C0.66 0.33 1.32 0.66 2 1 C1.6875 3.875 1.6875 3.875 1 7 C0.01 7.66 -0.98 8.32 -2 9 C-2.103125 8.360625 -2.20625 7.72125 -2.3125 7.0625 C-2.539375 6.381875 -2.76625 5.70125 -3 5 C-3.99 4.67 -4.98 4.34 -6 4 C-4.02 2.68 -2.04 1.36 0 0 Z " fill="#191D1B" transform="translate(639,257)"/>
<path d="M0 0 C4.29 0.33 8.58 0.66 13 1 C13 1.66 13 2.32 13 3 C14.65 2.34 16.3 1.68 18 1 C17.67 2.32 17.34 3.64 17 5 C8.585 3.02 8.585 3.02 0 1 C0 0.67 0 0.34 0 0 Z " fill="#DEDFDC" transform="translate(388,732)"/>
<path d="M0 0 C1 3 1 3 -0.4375 6.1875 C-1.2109375 7.5796875 -1.2109375 7.5796875 -2 9 C-2.33 8.01 -2.66 7.02 -3 6 C-3.66 7.32 -4.32 8.64 -5 10 C-5.66 9.01 -6.32 8.02 -7 7 C-6.67 6.34 -6.34 5.68 -6 5 C-5.34 5 -4.68 5 -4 5 C-4 4.01 -4 3.02 -4 2 C-3.01 2 -2.02 2 -1 2 C-0.67 1.34 -0.34 0.68 0 0 Z " fill="#161A18" transform="translate(774,583)"/>
<path d="M0 0 C0.99 0.66 1.98 1.32 3 2 C2.67 6.29 2.34 10.58 2 15 C1.67 15 1.34 15 1 15 C1 12.69 1 10.38 1 8 C-0.32 7.67 -1.64 7.34 -3 7 C-2.34 6.34 -1.68 5.68 -1 5 C-0.35232207 2.42938689 -0.35232207 2.42938689 0 0 Z " fill="#252A28" transform="translate(739,225)"/>
<path d="M0 0 C0.78375 0.04125 1.5675 0.0825 2.375 0.125 C0.98167426 3.49220387 -0.6039286 5.1109524 -3.625 7.125 C-4.25 4.75 -4.25 4.75 -4.625 2.125 C-2.625 0.125 -2.625 0.125 0 0 Z " fill="#D8D9D5" transform="translate(229.625,220.875)"/>
<path d="M0 0 C-2.39387157 0.67449966 -4.78969221 1.33976641 -7.1875 2 C-8.19780273 2.28617188 -8.19780273 2.28617188 -9.22851562 2.578125 C-12.90555156 3.5825836 -16.1850182 4.23704741 -20 4 C-19.34 3.67 -18.68 3.34 -18 3 C-18 2.34 -18 1.68 -18 1 C-17.32453125 0.93941406 -16.6490625 0.87882813 -15.953125 0.81640625 C-15.06109375 0.73261719 -14.1690625 0.64882813 -13.25 0.5625 C-12.36828125 0.48128906 -11.4865625 0.40007813 -10.578125 0.31640625 C-8.05833812 0.07575205 -8.05833812 0.07575205 -5.921875 -0.59765625 C-3.64739209 -1.07381832 -2.18988741 -0.70389238 0 0 Z " fill="#090C0A" transform="translate(554,788)"/>
<path d="M0 0 C5.7809725 0.63065155 11.3443706 1.65155132 17 3 C17 3.33 17 3.66 17 4 C16.05125 4.309375 15.1025 4.61875 14.125 4.9375 C11.13919592 5.87394742 11.13919592 5.87394742 9 7 C9.33 5.68 9.66 4.36 10 3 C6.7 2.34 3.4 1.68 0 1 C0 0.67 0 0.34 0 0 Z " fill="#0C0F0D" transform="translate(399,736)"/>
<path d="M0 0 C0.99 0.33 1.98 0.66 3 1 C1.44499019 4.81684226 -1.03595495 7.19195732 -4 10 C-4.66 9.67 -5.32 9.34 -6 9 C-5.34 8.01 -4.68 7.02 -4 6 C-4 5.34 -4 4.68 -4 4 C-2.68 4 -1.36 4 0 4 C0 2.68 0 1.36 0 0 Z " fill="#161A18" transform="translate(617,461)"/>
<path d="M0 0 C0 3 0 3 -1.375 4.6875 C-3 6 -3 6 -5 6 C-5.66 7.32 -6.32 8.64 -7 10 C-7.66 9.34 -8.32 8.68 -9 8 C-7.87811441 6.85111717 -6.75238316 5.70598863 -5.625 4.5625 C-4.99851562 3.92441406 -4.37203125 3.28632813 -3.7265625 2.62890625 C-2 1 -2 1 0 0 Z " fill="#D4D6D2" transform="translate(270,264)"/>
<path d="M0 0 C4.38889325 0.66498383 7.9811485 2.18757677 12 4 C8.21603308 5.26132231 5.85909105 4.91214879 2 4 C0.5625 1.9375 0.5625 1.9375 0 0 Z " fill="#101210" transform="translate(349,719)"/>
<path d="M0 0 C0.66 1.32 1.32 2.64 2 4 C3.65 4 5.3 4 7 4 C7 4.66 7 5.32 7 6 C6.01 6 5.02 6 4 6 C4.33 7.32 4.66 8.64 5 10 C4.34 10 3.68 10 3 10 C0 3.375 0 3.375 0 0 Z " fill="#131615" transform="translate(155,589)"/>
<path d="M0 0 C-0.99 0.33 -1.98 0.66 -3 1 C-4.20882096 3.00016466 -4.20882096 3.00016466 -5 5 C-5.33 4.34 -5.66 3.68 -6 3 C-8.12576782 2.53348793 -8.12576782 2.53348793 -10.5625 2.375 C-11.38878906 2.30023438 -12.21507812 2.22546875 -13.06640625 2.1484375 C-13.70449219 2.09945313 -14.34257813 2.05046875 -15 2 C-15 1.67 -15 1.34 -15 1 C-12.87630763 0.63807496 -10.7509887 0.28568253 -8.625 -0.0625 C-6.84996094 -0.35833984 -6.84996094 -0.35833984 -5.0390625 -0.66015625 C-2 -1 -2 -1 0 0 Z " fill="#F3F4F2" transform="translate(686,454)"/>
<path d="M0 0 C0.99 0.33 1.98 0.66 3 1 C0.525 2.485 0.525 2.485 -2 4 C-1.34 2.68 -0.68 1.36 0 0 Z M-3 4 C-2.01 4.99 -1.02 5.98 0 7 C-1.98 7.99 -1.98 7.99 -4 9 C-4.33 8.34 -4.66 7.68 -5 7 C-4.34 6.01 -3.68 5.02 -3 4 Z M0 6 C2 7 2 7 2 7 Z " fill="#151817" transform="translate(388,393)"/>
<path d="M0 0 C0 3.69418201 -1.28179295 5.77836178 -3 9 C-4.32 8.34 -5.64 7.68 -7 7 C-4.69 4.69 -2.38 2.38 0 0 Z " fill="#0E1110" transform="translate(324,456)"/>
<path d="M0 0 C0.33 0 0.66 0 1 0 C1.33 3.96 1.66 7.92 2 12 C1.01 12 0.02 12 -1 12 C-0.67 8.04 -0.34 4.08 0 0 Z " fill="#DADCD7" transform="translate(795,499)"/>
<path d="M0 0 C0.33 0 0.66 0 1 0 C1.33 2.97 1.66 5.94 2 9 C1.01 9.33 0.02 9.66 -1 10 C-1 9.01 -1 8.02 -1 7 C-1.66 6.67 -2.32 6.34 -3 6 C-2.67 5.34 -2.34 4.68 -2 4 C-1.34 4 -0.68 4 0 4 C0 2.68 0 1.36 0 0 Z " fill="#DADCD6" transform="translate(737,500)"/>
<path d="M0 0 C0 3.64478912 -0.85802506 5.09303401 -3 8 C-5.109375 8.6484375 -5.109375 8.6484375 -7 9 C-6.02180976 7.68677212 -5.0424189 6.37443848 -4.0625 5.0625 C-3.51722656 4.33160156 -2.97195312 3.60070312 -2.41015625 2.84765625 C-1 1 -1 1 0 0 Z " fill="#111412" transform="translate(211,244)"/>
<path d="M0 0 C0 3 0 3 -1 5 C-1.99 4.67 -2.98 4.34 -4 4 C-4.33 3.01 -4.66 2.02 -5 1 C-5.66 0.67 -6.32 0.34 -7 0 C-3.98968256 -0.93423645 -3.13349732 -1.04449911 0 0 Z " fill="#171A19" transform="translate(367,198)"/>
<path d="M0 0 C-0.66 1.32 -1.32 2.64 -2 4 C-2.33 3.34 -2.66 2.68 -3 2 C-6.02934491 1.34227572 -6.02934491 1.34227572 -9 1 C-5.64919071 -1.10976881 -3.77897651 -1.0497157 0 0 Z " fill="#DBDDD8" transform="translate(556,789)"/>
<path d="M0 0 C0 4.0333534 -1.60879918 5.83517538 -4 9 C-4.66 9 -5.32 9 -6 9 C-4.68775452 5.06326356 -3.08089673 2.77280706 0 0 Z " fill="#DEDFDC" transform="translate(710,690)"/>
<path d="M0 0 C0.66 0.33 1.32 0.66 2 1 C0.8125 3.9375 0.8125 3.9375 -1 7 C-3.6875 7.875 -3.6875 7.875 -6 8 C-6 7.34 -6 6.68 -6 6 C-5.01 6 -4.02 6 -3 6 C-2.87625 5.38125 -2.7525 4.7625 -2.625 4.125 C-2 2 -2 2 0 0 Z " fill="#181D1B" transform="translate(738,532)"/>
<path d="M0 0 C-0.1875 1.8125 -0.1875 1.8125 -1 4 C-3.4375 5.8125 -3.4375 5.8125 -6 7 C-6.66 6.67 -7.32 6.34 -8 6 C-7.0479279 4.99403703 -6.08812654 3.99538437 -5.125 3 C-4.59132813 2.443125 -4.05765625 1.88625 -3.5078125 1.3125 C-2 0 -2 0 0 0 Z " fill="#D5D6D3" transform="translate(363,472)"/>
<path d="M0 0 C0.66 0.99 1.32 1.98 2 3 C-0.31 4.32 -2.62 5.64 -5 7 C-5 5.35 -5 3.7 -5 2 C-4.34 1.67 -3.68 1.34 -3 1 C-2.67 1.66 -2.34 2.32 -2 3 C-1.34 2.01 -0.68 1.02 0 0 Z " fill="#161A19" transform="translate(149,365)"/>
<path d="M0 0 C4.8333472 -0.08333357 9.23692563 0.04738513 14 1 C13.67 1.66 13.34 2.32 13 3 C8.07872966 3.16682272 4.49656104 3.24828052 0 1 C0 0.67 0 0.34 0 0 Z " fill="#F6F7F5" transform="translate(704,323)"/>
<path d="M0 0 C1 2 1 2 0.3125 4.9375 C-1.06192878 8.14450048 -2.06205603 9.23723362 -5 11 C-4.46884894 6.48521602 -2.63379708 3.65333143 0 0 Z " fill="#0F1311" transform="translate(706,602)"/>
<path d="M0 0 C0.33 1.32 0.66 2.64 1 4 C0.34 4 -0.32 4 -1 4 C-0.79375 4.61875 -0.5875 5.2375 -0.375 5.875 C-0.25125 6.57625 -0.1275 7.2775 0 8 C-0.66 8.66 -1.32 9.32 -2 10 C-2.79198196 7.14886495 -3.21481122 5.55237171 -2.125 2.75 C-1 1 -1 1 0 0 Z " fill="#D9DAD7" transform="translate(791,536)"/>
<path d="M0 0 C1.98 0.99 1.98 0.99 4 2 C4 2.99 4 3.98 4 5 C3.34 5 2.68 5 2 5 C1.67 5.66 1.34 6.32 1 7 C0 2.25 0 2.25 0 0 Z " fill="#292D2C" transform="translate(484,465)"/>
<path d="M0 0 C1 3 1 3 0.00390625 5.04296875 C-0.47175781 5.75066406 -0.94742188 6.45835937 -1.4375 7.1875 C-1.91058594 7.90292969 -2.38367188 8.61835938 -2.87109375 9.35546875 C-3.24363281 9.89816406 -3.61617187 10.44085938 -4 11 C-5 9 -5 9 -4.51171875 7.08984375 C-4.10373047 6.02443359 -4.10373047 6.02443359 -3.6875 4.9375 C-3.42324219 4.22464844 -3.15898437 3.51179688 -2.88671875 2.77734375 C-2 1 -2 1 0 0 Z " fill="#EEEFEC" transform="translate(171,299)"/>
<path d="M0 0 C0.33 0.99 0.66 1.98 1 3 C-2.63 2.67 -6.26 2.34 -10 2 C-10 1.67 -10 1.34 -10 1 C-6.59437148 0.22157062 -3.49234244 -0.09978121 0 0 Z " fill="#DCDEDA" transform="translate(518,132)"/>
<path d="M0 0 C3.36720387 1.39332574 4.9859524 2.9789286 7 6 C4 6 4 6 1.8125 4.125 C0 2 0 2 0 0 Z " fill="#D0D1CD" transform="translate(476,455)"/>
<path d="M0 0 C3.37503669 1.1858237 5.64722731 2.27573689 8 5 C6.02 5.99 6.02 5.99 4 7 C3.896875 6.401875 3.79375 5.80375 3.6875 5.1875 C2.91123545 2.71756736 1.92911079 1.67748765 0 0 Z " fill="#101312" transform="translate(630,176)"/>
</svg>
